# xmcd
#
# Track frame offsets:
#	150
#	20625
#	34353
#	53047
#	76388
#	96463
#	114746
#	140566
#	156674
#	169547
#	183758
#	202564
#	221201
#	232916
#	247220
#	264456
#
# Disc length: 3836 seconds
#
# Revision: 0
# Processed by: cddbd v1.5.2PL0 Copyright (c) Steve Scherf et al.
# Submitted via: EasyCDDAExtractor 12.0.1.1
#
DISCID=e40efa10
DTITLE=Steve Earle - Angry Young Man
DYEAR=1999
DGENRE=Country
TTITLE0=Copperhead Road
TTITLE1=The Devil's Right hand
TTITLE2=Johnny Come Lately
TTITLE3=Waiting On You
TTITLE4=Angry Young Man
TTITLE5=I Ain't Ever Satisfied
TTITLE6=It's All Up To You
TTITLE7=No.29
TTITLE8=Nowhere Road
TTITLE9=San Antonia Girl
TTITLE10=The Rain Came Down
TTITLE11=Fearless Heart
TTITLE12=Guitar Town
TTITLE13=My Old Friend The Blues
TTITLE14=Someday
TTITLE15=The Other Kind
EXTD=
EXTT0=
EXTT1=
EXTT2=
EXTT3=
EXTT4=
EXTT5=
EXTT6=
EXTT7=
EXTT8=
EXTT9=
EXTT10=
EXTT11=
EXTT12=
EXTT13=
EXTT14=
EXTT15=
PLAYORDER=
